<svg width="300" height="300" viewBox="0 0 300 300" fill="none" xmlns="http://www.w3.org/2000/svg">
  <path d="M150 280c71.797 0 130-58.203 130-130S221.797 20 150 20 20 78.203 20 150s58.203 130 130 130z" fill="#F3F4F6"/>
  <path d="M180 140c0 16.569-13.431 30-30 30-16.569 0-30-13.431-30-30s13.431-30 30-30c16.569 0 30 13.431 30 30z" fill="#fff"/>
  <path d="M165 135c0 8.284-6.716 15-15 15s-15-6.716-15-15 6.716-15 15-15 15 6.716 15 15z" fill="#4B5563"/>
  <path d="M150 190c-22.091 0-40-17.909-40-40s17.909-40 40-40 40 17.909 40 40-17.909 40-40 40zm0-70c-16.569 0-30 13.431-30 30s13.431 30 30 30 30-13.431 30-30-13.431-30-30-30z" fill="#4B5563"/>
  <path d="M150 200c-27.614 0-50-22.386-50-50s22.386-50 50-50 50 22.386 50 50-22.386 50-50 50zm0-90c-22.091 0-40 17.909-40 40s17.909 40 40 40 40-17.909 40-40-17.909-40-40-40z" fill="#6B7280"/>
  <path d="M120 120h60v20h-60v-20z" fill="#9CA3AF"/>
  <path d="M140 160h20v20h-20v-20z" fill="#9CA3AF"/>
</svg>